<svg width="23" height="20" viewBox="0 0 23 20" fill="none" xmlns="http://www.w3.org/2000/svg">
<g clip-path="url(#clip0_1_19163)">
<path opacity="0.4" d="M21.207 13.6489C21.207 16.5866 18.8323 18.9661 15.8744 18.9767H15.8638H5.35768C2.41046 18.9767 0.00390625 16.6076 0.00390625 13.6699V13.6594C0.00390625 13.6594 0.0102672 8.99915 0.0187484 6.65534C0.0198086 6.21521 0.528683 5.96883 0.875353 6.24258C3.39428 8.22735 7.89887 11.8463 7.95507 11.8937C8.70778 12.4927 9.66191 12.8308 10.6373 12.8308C11.6126 12.8308 12.5668 12.4927 13.3195 11.8821C13.3756 11.8452 17.7795 8.33475 20.3366 6.31735C20.6844 6.04253 21.1954 6.28891 21.1964 6.72798C21.207 9.0539 21.207 13.6489 21.207 13.6489Z" fill="white"/>
<path d="M20.6514 2.83896C19.7333 1.12058 17.9267 0.0234375 15.9379 0.0234375H5.35759C3.36873 0.0234375 1.56223 1.12058 0.644136 2.83896C0.438466 3.22328 0.536 3.70236 0.87843 3.97401L8.75008 10.2274C9.30135 10.6696 9.96924 10.8896 10.6372 10.8896C10.6414 10.8896 10.6445 10.8896 10.6478 10.8896C10.6509 10.8896 10.6552 10.8896 10.6583 10.8896C11.3263 10.8896 11.9942 10.6696 12.5454 10.2274L20.417 3.97401C20.7595 3.70236 20.857 3.22328 20.6514 2.83896Z" fill="white"/>
</g>
<defs>
<clipPath id="clip0_1_19163">
<rect width="22" height="19" fill="white" transform="translate(0.00390625 0.0234375)"/>
</clipPath>
</defs>
</svg>
